<?xml version="1.0" standalone="no"?>
<!DOCTYPE svg PUBLIC "-//W3C//DTD SVG 20010904//EN"
 "http://www.w3.org/TR/2001/REC-SVG-20010904/DTD/svg10.dtd">
<svg version="1.0" xmlns="http://www.w3.org/2000/svg"
 width="1024.000000pt" height="1024.000000pt" viewBox="0 0 1024.000000 1024.000000"
 preserveAspectRatio="xMidYMid meet">

<g transform="translate(0.000000,1024.000000) scale(0.100000,-0.100000)"
fill="#000000" stroke="none">
<path d="M3989 8733 c-55 -129 -61 -246 -18 -338 30 -63 120 -160 183 -196 28
-16 54 -29 57 -29 11 0 43 183 42 245 0 83 -16 133 -66 207 -37 56 -147 158
-169 158 -5 0 -18 -21 -29 -47z"/>
<path d="M5740 8746 c-19 -7 -69 -30 -110 -51 -343 -172 -560 -462 -626 -840
-13 -70 -15 -131 -11 -274 3 -100 9 -187 14 -192 12 -12 180 65 298 137 124
75 212 149 301 252 115 133 183 269 221 435 19 88 22 348 4 422 -34 139 -29
134 -91 111z"/>
<path d="M3227 8497 c-62 -105 -90 -261 -67 -372 16 -78 67 -176 134 -254 54
-64 142 -141 162 -141 7 0 27 60 45 133 59 237 42 386 -60 520 -43 55 -160
157 -181 157 -4 0 -19 -19 -33 -43z"/>
<path d="M7327 8295 c-112 -49 -203 -113 -288 -203 -159 -168 -222 -343 -223
-627 0 -105 19 -330 30 -343 5 -7 92 43 176 100 106 73 262 232 317 325 97
165 137 326 128 518 -6 118 -34 256 -52 262 -6 1 -45 -13 -88 -32z"/>
<path d="M2360 8035 c-6 -15 -20 -79 -31 -143 -37 -204 -15 -425 56 -576 76
-162 220 -325 377 -429 69 -45 156 -92 158 -84 13 49 31 215 36 317 10 213
-29 393 -121 554 -85 150 -184 240 -367 336 l-98 51 -10 -26z"/>
<path d="M3207 7659 c-69 -290 -32 -581 110 -864 79 -157 149 -252 288 -391
138 -138 260 -227 500 -364 229 -130 382 -240 529 -379 193 -183 320 -340 440
-544 38 -65 70 -116 71 -115 1 2 -2 44 -7 93 -34 352 -137 585 -356 801 -131
130 -296 239 -586 388 -298 153 -464 273 -602 434 -222 260 -342 556 -362 892
l-7 125 -18 -76z"/>
<path d="M4661 6829 c-214 -107 -213 -418 2 -523 72 -36 130 -42 206 -22 91
23 160 79 207 166 29 54 26 180 -5 244 -53 108 -147 166 -272 166 -65 0 -85
-4 -138 -31z"/>
<path d="M1705 6825 c-33 -7 -64 -14 -70 -15 -36 -2 -37 -17 -6 -94 80 -199
240 -401 396 -502 89 -56 197 -103 304 -131 81 -21 121 -25 251 -27 85 0 186
3 223 7 68 9 69 9 62 35 -7 30 -100 200 -152 279 -106 160 -301 327 -456 390
-133 55 -185 65 -342 69 -106 2 -168 -1 -210 -11z"/>
<path d="M7940 6473 c-68 -99 -248 -279 -365 -366 -104 -78 -320 -191 -449
-236 -178 -63 -300 -92 -596 -142 -199 -33 -415 -80 -489 -105 -215 -73 -367
-166 -491 -301 -136 -148 -211 -291 -265 -503 l-26 -101 35 -137 c34 -138 86
-423 86 -477 0 -64 18 -3 34 113 67 488 279 867 604 1083 144 95 261 138 627
229 171 43 355 95 410 115 423 157 714 401 885 745 24 48 64 160 56 160 -1 0
-26 -35 -56 -77z"/>
<path d="M5499 6267 c-75 -21 -136 -63 -174 -120 -130 -197 1 -446 236 -447
94 0 154 23 216 85 85 86 106 206 54 316 -59 125 -209 200 -332 166z"/>
<path d="M8341 6211 c-161 -41 -316 -145 -434 -291 -63 -79 -167 -261 -167
-293 0 -20 35 -27 185 -33 389 -18 673 153 854 515 18 34 30 65 27 68 -3 3
-31 14 -63 26 -85 29 -300 34 -402 8z"/>
<path d="M1398 6078 c-27 -5 -48 -15 -48 -20 0 -22 75 -151 112 -192 49 -57
129 -96 208 -103 63 -6 207 13 216 29 9 14 -76 149 -125 198 -69 69 -128 94
-231 96 -47 2 -106 -2 -132 -8z"/>
<path d="M3256 5959 c-106 -9 -211 -31 -326 -69 -79 -26 -186 -78 -177 -86 2
-2 32 2 68 8 35 6 163 12 284 12 246 0 352 -14 580 -79 583 -166 991 -583
1161 -1188 52 -186 67 -303 67 -537 0 -234 -14 -350 -69 -559 -118 -454 -341
-826 -673 -1124 -125 -113 -365 -272 -520 -345 l-74 -36 33 -28 c17 -16 30
-31 28 -33 -1 -1 -28 -18 -58 -37 -85 -53 -209 -106 -385 -164 -88 -29 -153
-53 -144 -53 32 -2 279 48 391 78 169 45 276 85 444 166 160 77 248 130 379
228 268 202 379 325 582 643 25 38 -31 -104 -83 -211 -65 -136 -113 -208 -207
-316 -196 -224 -474 -395 -837 -516 -109 -36 -190 -69 -238 -99 -40 -24 -103
-53 -140 -65 -37 -11 -71 -22 -77 -24 -27 -9 157 -3 285 10 394 38 719 145
986 323 222 149 419 385 523 628 70 163 139 461 158 683 8 94 16 72 33 -83 20
-186 2 -363 -51 -525 l-21 -63 37 -72 c160 -307 395 -531 730 -696 143 -71
228 -100 406 -139 174 -39 328 -59 514 -66 l150 -6 -71 20 c-94 26 -132 43
-177 79 -21 17 -57 37 -80 45 -23 7 -105 34 -182 60 -77 25 -165 57 -195 71
-345 158 -621 409 -761 691 -27 55 -49 104 -49 109 0 5 22 -20 49 -55 62 -82
192 -225 256 -282 230 -203 612 -423 890 -511 108 -34 277 -73 350 -80 58 -6
56 -5 -65 37 -119 41 -287 120 -372 174 l-39 24 42 31 42 30 -94 50 c-131 70
-308 187 -416 274 -399 323 -673 824 -802 1464 -17 85 -47 245 -66 355 -75
424 -138 634 -260 880 -99 198 -181 311 -345 476 -252 253 -519 400 -850 469
-182 37 -365 47 -564 29z"/>
<path d="M3457 5510 c-128 -47 -329 -168 -497 -298 -122 -95 -324 -301 -403
-412 l-67 -95 57 -3 c70 -4 210 13 316 39 341 83 546 293 671 689 40 126 42
124 -77 80z"/>
<path d="M2240 5424 c-204 -31 -455 -65 -578 -77 -130 -13 -133 -14 -168 -48
-62 -60 -62 -65 6 -99 33 -17 101 -42 151 -56 81 -23 103 -26 198 -21 126 6
193 27 289 91 66 44 212 184 212 204 0 18 -23 19 -110 6z"/>
<path d="M6664 4989 c18 -113 75 -225 139 -273 70 -52 195 -94 255 -84 22 3
21 6 -24 83 -62 106 -195 239 -283 283 -87 43 -95 42 -87 -9z"/>
</g>
</svg>
